<mxfile host="app.diagrams.net" modified="2023-10-24T04:54:47.750Z" agent="Mozilla/5.0 (Windows NT 10.0; Win64; x64) AppleWebKit/537.36 (KHTML, like Gecko) Chrome/118.0.0.0 Safari/537.36" etag="7QHyMjkhpzqGvcQDGsuZ" version="22.0.6" type="github">
  <diagram id="C5RBs43oDa-KdzZeNtuy" name="Page-1">
    <mxGraphModel dx="1032" dy="1708" grid="1" gridSize="10" guides="1" tooltips="1" connect="1" arrows="1" fold="1" page="1" pageScale="1" pageWidth="827" pageHeight="1169" math="0" shadow="0">
      <root>
        <mxCell id="WIyWlLk6GJQsqaUBKTNV-0" />
        <mxCell id="WIyWlLk6GJQsqaUBKTNV-1" parent="WIyWlLk6GJQsqaUBKTNV-0" />
        <mxCell id="Pgm1BI9-v7ZyEm0ZDX-T-1" value="Peron" style="swimlane;fontStyle=1;childLayout=stackLayout;horizontal=1;startSize=26;horizontalStack=0;resizeParent=1;resizeParentMax=0;resizeLast=0;collapsible=1;marginBottom=0;align=center;fontSize=14;" vertex="1" parent="WIyWlLk6GJQsqaUBKTNV-1">
          <mxGeometry x="40" y="-430" width="160" height="140" as="geometry" />
        </mxCell>
        <mxCell id="Pgm1BI9-v7ZyEm0ZDX-T-2" value="&lt;font style=&quot;font-size: 18px;&quot;&gt;PIN&lt;/font&gt;" style="text;strokeColor=none;fillColor=none;spacingLeft=4;spacingRight=4;overflow=hidden;rotatable=0;points=[[0,0.5],[1,0.5]];portConstraint=eastwest;fontSize=12;whiteSpace=wrap;html=1;rounded=0;" vertex="1" parent="Pgm1BI9-v7ZyEm0ZDX-T-1">
          <mxGeometry y="26" width="160" height="30" as="geometry" />
        </mxCell>
        <mxCell id="Pgm1BI9-v7ZyEm0ZDX-T-3" value="&lt;font style=&quot;font-size: 16px;&quot;&gt;ASK&lt;/font&gt;" style="text;strokeColor=none;fillColor=none;spacingLeft=4;spacingRight=4;overflow=hidden;rotatable=0;points=[[0,0.5],[1,0.5]];portConstraint=eastwest;fontSize=12;whiteSpace=wrap;html=1;" vertex="1" parent="Pgm1BI9-v7ZyEm0ZDX-T-1">
          <mxGeometry y="56" width="160" height="84" as="geometry" />
        </mxCell>
        <mxCell id="Pgm1BI9-v7ZyEm0ZDX-T-5" value="Account" style="swimlane;fontStyle=1;childLayout=stackLayout;horizontal=1;startSize=26;horizontalStack=0;resizeParent=1;resizeParentMax=0;resizeLast=0;collapsible=1;marginBottom=0;align=center;fontSize=14;" vertex="1" parent="WIyWlLk6GJQsqaUBKTNV-1">
          <mxGeometry x="220" y="-210" width="160" height="140" as="geometry" />
        </mxCell>
        <mxCell id="Pgm1BI9-v7ZyEm0ZDX-T-6" value="&lt;font style=&quot;font-size: 15px;&quot;&gt;Inquire&lt;/font&gt;" style="text;strokeColor=none;fillColor=none;spacingLeft=4;spacingRight=4;overflow=hidden;rotatable=0;points=[[0,0.5],[1,0.5]];portConstraint=eastwest;fontSize=12;whiteSpace=wrap;html=1;" vertex="1" parent="Pgm1BI9-v7ZyEm0ZDX-T-5">
          <mxGeometry y="26" width="160" height="30" as="geometry" />
        </mxCell>
        <mxCell id="Pgm1BI9-v7ZyEm0ZDX-T-24" value="" style="endArrow=classic;startArrow=classic;html=1;rounded=0;exitX=0.017;exitY=0.336;exitDx=0;exitDy=0;exitPerimeter=0;strokeWidth=2;" edge="1" parent="Pgm1BI9-v7ZyEm0ZDX-T-5" source="Pgm1BI9-v7ZyEm0ZDX-T-14">
          <mxGeometry width="50" height="50" relative="1" as="geometry">
            <mxPoint x="20" y="120" as="sourcePoint" />
            <mxPoint x="70" y="70" as="targetPoint" />
          </mxGeometry>
        </mxCell>
        <mxCell id="Pgm1BI9-v7ZyEm0ZDX-T-7" value="&lt;font style=&quot;font-size: 16px;&quot;&gt;Update&lt;/font&gt;" style="text;strokeColor=none;fillColor=none;spacingLeft=4;spacingRight=4;overflow=hidden;rotatable=0;points=[[0,0.5],[1,0.5]];portConstraint=eastwest;fontSize=12;whiteSpace=wrap;html=1;" vertex="1" parent="Pgm1BI9-v7ZyEm0ZDX-T-5">
          <mxGeometry y="56" width="160" height="84" as="geometry" />
        </mxCell>
        <mxCell id="Pgm1BI9-v7ZyEm0ZDX-T-8" value="Card" style="swimlane;fontStyle=1;childLayout=stackLayout;horizontal=1;startSize=26;horizontalStack=0;resizeParent=1;resizeParentMax=0;resizeLast=0;collapsible=1;marginBottom=0;align=center;fontSize=14;" vertex="1" parent="WIyWlLk6GJQsqaUBKTNV-1">
          <mxGeometry x="450" y="-430" width="160" height="130" as="geometry" />
        </mxCell>
        <mxCell id="Pgm1BI9-v7ZyEm0ZDX-T-9" value="&lt;font style=&quot;font-size: 21px;&quot;&gt;&amp;nbsp; &amp;nbsp; &amp;nbsp; &amp;nbsp; &amp;nbsp; &amp;nbsp; &amp;nbsp; &amp;nbsp; Insert&lt;/font&gt;" style="text;strokeColor=none;fillColor=none;spacingLeft=4;spacingRight=4;overflow=hidden;rotatable=0;points=[[0,0.5],[1,0.5]];portConstraint=eastwest;fontSize=12;whiteSpace=wrap;html=1;" vertex="1" parent="Pgm1BI9-v7ZyEm0ZDX-T-8">
          <mxGeometry y="26" width="160" height="104" as="geometry" />
        </mxCell>
        <mxCell id="Pgm1BI9-v7ZyEm0ZDX-T-11" value="ATM" style="swimlane;fontStyle=1;childLayout=stackLayout;horizontal=1;startSize=26;horizontalStack=0;resizeParent=1;resizeParentMax=0;resizeLast=0;collapsible=1;marginBottom=0;align=center;fontSize=14;" vertex="1" parent="WIyWlLk6GJQsqaUBKTNV-1">
          <mxGeometry x="560" y="-210" width="160" height="160" as="geometry" />
        </mxCell>
        <mxCell id="Pgm1BI9-v7ZyEm0ZDX-T-12" value="&lt;font style=&quot;font-size: 17px;&quot;&gt;&amp;nbsp; &amp;nbsp; PIN&lt;/font&gt;" style="text;strokeColor=none;fillColor=none;spacingLeft=4;spacingRight=4;overflow=hidden;rotatable=0;points=[[0,0.5],[1,0.5]];portConstraint=eastwest;fontSize=12;whiteSpace=wrap;html=1;" vertex="1" parent="Pgm1BI9-v7ZyEm0ZDX-T-11">
          <mxGeometry y="26" width="160" height="30" as="geometry" />
        </mxCell>
        <mxCell id="Pgm1BI9-v7ZyEm0ZDX-T-13" value="&lt;font style=&quot;font-size: 17px;&quot;&gt;&amp;nbsp; &amp;nbsp; &amp;nbsp; &amp;nbsp; &amp;nbsp; &amp;nbsp; &amp;nbsp; &amp;nbsp; Check&lt;/font&gt;" style="text;strokeColor=none;fillColor=none;spacingLeft=4;spacingRight=4;overflow=hidden;rotatable=0;points=[[0,0.5],[1,0.5]];portConstraint=eastwest;fontSize=12;whiteSpace=wrap;html=1;" vertex="1" parent="Pgm1BI9-v7ZyEm0ZDX-T-11">
          <mxGeometry y="56" width="160" height="54" as="geometry" />
        </mxCell>
        <mxCell id="Pgm1BI9-v7ZyEm0ZDX-T-14" value="&lt;font style=&quot;font-size: 16px;&quot;&gt;Access&lt;/font&gt;" style="text;strokeColor=none;fillColor=none;spacingLeft=4;spacingRight=4;overflow=hidden;rotatable=0;points=[[0,0.5],[1,0.5]];portConstraint=eastwest;fontSize=12;whiteSpace=wrap;html=1;" vertex="1" parent="Pgm1BI9-v7ZyEm0ZDX-T-11">
          <mxGeometry y="110" width="160" height="50" as="geometry" />
        </mxCell>
        <mxCell id="Pgm1BI9-v7ZyEm0ZDX-T-22" value="" style="endArrow=classic;html=1;rounded=0;strokeWidth=2;" edge="1" parent="Pgm1BI9-v7ZyEm0ZDX-T-11">
          <mxGeometry width="50" height="50" relative="1" as="geometry">
            <mxPoint x="230" y="74" as="sourcePoint" />
            <mxPoint x="140" y="74" as="targetPoint" />
          </mxGeometry>
        </mxCell>
        <mxCell id="Pgm1BI9-v7ZyEm0ZDX-T-17" value="" style="endArrow=classic;startArrow=classic;html=1;rounded=0;exitX=0;exitY=0.5;exitDx=0;exitDy=0;strokeWidth=2;" edge="1" parent="WIyWlLk6GJQsqaUBKTNV-1">
          <mxGeometry width="50" height="50" relative="1" as="geometry">
            <mxPoint x="570" y="-169" as="sourcePoint" />
            <mxPoint x="80" y="-380" as="targetPoint" />
          </mxGeometry>
        </mxCell>
        <mxCell id="Pgm1BI9-v7ZyEm0ZDX-T-18" value="" style="endArrow=classic;startArrow=classic;html=1;rounded=0;exitX=-0.025;exitY=0.249;exitDx=0;exitDy=0;exitPerimeter=0;strokeWidth=2;" edge="1" parent="WIyWlLk6GJQsqaUBKTNV-1" source="Pgm1BI9-v7ZyEm0ZDX-T-6">
          <mxGeometry width="50" height="50" relative="1" as="geometry">
            <mxPoint x="20" y="-300" as="sourcePoint" />
            <mxPoint x="70" y="-350" as="targetPoint" />
          </mxGeometry>
        </mxCell>
        <mxCell id="Pgm1BI9-v7ZyEm0ZDX-T-21" value="" style="endArrow=classic;html=1;rounded=0;strokeWidth=2;" edge="1" parent="WIyWlLk6GJQsqaUBKTNV-1">
          <mxGeometry width="50" height="50" relative="1" as="geometry">
            <mxPoint x="710" y="-390" as="sourcePoint" />
            <mxPoint x="620" y="-390" as="targetPoint" />
          </mxGeometry>
        </mxCell>
        <mxCell id="Pgm1BI9-v7ZyEm0ZDX-T-25" value="Object-Oriented&amp;nbsp;" style="shape=parallelogram;perimeter=parallelogramPerimeter;whiteSpace=wrap;html=1;fixedSize=1;fillColor=#f5f5f5;gradientColor=#b3b3b3;strokeColor=#666666;" vertex="1" parent="WIyWlLk6GJQsqaUBKTNV-1">
          <mxGeometry x="80" y="-540" width="180" height="40" as="geometry" />
        </mxCell>
      </root>
    </mxGraphModel>
  </diagram>
</mxfile>
